<svg width="76" height="75" viewBox="0 0 76 75" fill="none" xmlns="http://www.w3.org/2000/svg">
<g clip-path="url(#clip0_85_151)">
<path d="M37.875 0.284668C39.926 0.284668 41.5893 1.94791 41.5893 3.99892C41.5893 6.04993 39.926 7.71317 37.875 7.71317C21.4647 7.71317 8.16102 21.0169 8.16102 37.4272C8.16102 53.8375 21.4647 67.1412 37.875 67.1412C54.2853 67.1412 67.5891 53.8375 67.5891 37.4272C67.5891 35.3762 69.2523 33.7129 71.3033 33.7129C73.3543 33.7129 75.0176 35.3762 75.0176 37.4272C75.0176 57.9403 58.3881 74.5697 37.875 74.5697C17.362 74.5697 0.732513 57.9403 0.732513 37.4272C0.732513 16.9141 17.362 0.284668 37.875 0.284668ZM49.2161 9.96252C47.3278 9.16099 46.4468 6.97998 47.2483 5.0924C48.0499 3.20407 50.2301 2.32305 52.1185 3.12459C54.0068 3.92612 54.8878 6.10639 54.0863 7.99471C53.2847 9.88304 51.1037 10.7641 49.2161 9.96252ZM58.8858 16.4164C57.435 14.9664 57.435 12.6145 58.8858 11.1637C60.3359 9.71367 62.6877 9.71367 64.1385 11.1637C65.5886 12.6145 65.5886 14.9664 64.1385 16.4164C62.6877 17.8672 60.3359 17.8672 58.8858 16.4164ZM65.3144 26.0267C64.5463 24.1242 65.4645 21.9596 67.3669 21.1915C69.2686 20.4233 71.434 21.3415 72.2021 23.2439C72.9703 25.1456 72.0514 27.3111 70.1497 28.0792C68.248 28.8473 66.0826 27.9284 65.3144 26.0267Z" fill="#C3044D"/>
<path d="M37.875 0.284668C39.926 0.284668 41.5893 1.94791 41.5893 3.99892C41.5893 6.04993 39.926 7.71317 37.875 7.71317C21.4647 7.71317 8.16102 21.0169 8.16102 37.4272C8.16102 53.8375 21.4647 67.1412 37.875 67.1412C54.2853 67.1412 67.5891 53.8375 67.5891 37.4272C67.5891 35.3762 69.2523 33.7129 71.3033 33.7129C73.3543 33.7129 75.0176 35.3762 75.0176 37.4272C75.0176 57.9403 58.3881 74.5697 37.875 74.5697C17.362 74.5697 0.732513 57.9403 0.732513 37.4272C0.732513 16.9141 17.362 0.284668 37.875 0.284668Z" fill="#FBFBFB"/>
<g clip-path="url(#clip1_85_151)">
<path d="M26.7121 24.6846C26.7121 26.6906 25.0488 28.3163 22.9979 28.3163C20.947 28.3163 19.2837 26.6906 19.2837 24.6846C19.2837 22.6786 20.947 21.053 22.9979 21.053C25.0488 21.053 26.7121 22.6793 26.7121 24.6846Z" fill="#FBFBFB"/>
<path d="M34.1405 28.3163H52.7114C54.7545 28.3163 56.4256 26.6823 56.4256 24.6846C56.4256 22.6869 54.7545 21.053 52.7121 21.053H34.1405C32.0974 21.053 30.4263 22.6869 30.4263 24.6846C30.4263 26.6823 32.0974 28.3163 34.1405 28.3163Z" fill="#FBFBFB"/>
<path d="M26.7121 37.3951C26.7121 39.4011 25.0488 41.0267 22.9979 41.0267C20.9471 41.0267 19.2838 39.4011 19.2838 37.3951C19.2838 35.3891 20.9471 33.7634 22.9979 33.7634C25.0488 33.7634 26.7121 35.3898 26.7121 37.3951Z" fill="#FBFBFB"/>
<path d="M52.7121 33.7634H34.1405C32.0974 33.7634 30.4263 35.3974 30.4263 37.3951C30.4263 39.3927 32.0974 41.0267 34.1405 41.0267H52.7114C54.7545 41.0267 56.4256 39.3927 56.4256 37.3951C56.4256 35.3974 54.7545 33.7634 52.7114 33.7634H52.7121Z" fill="#FBFBFB"/>
<path d="M26.7121 50.106C26.7121 52.112 25.0488 53.7376 22.9979 53.7376C20.9471 53.7376 19.2838 52.112 19.2838 50.106C19.2838 48.1 20.9471 46.4744 22.9979 46.4744C25.0488 46.4744 26.7121 48.1007 26.7121 50.106Z" fill="#FBFBFB"/>
<path d="M52.7121 46.4744H34.1405C32.0974 46.4744 30.4263 48.1083 30.4263 50.106C30.4263 52.1037 32.0974 53.7376 34.1405 53.7376H52.7114C54.7545 53.7376 56.4256 52.1037 56.4256 50.106C56.4256 48.1083 54.7545 46.4744 52.7114 46.4744H52.7121Z" fill="#FBFBFB"/>
</g>
</g>
<defs>
<clipPath id="clip0_85_151">
<rect width="74.285" height="74.285" fill="white" transform="translate(0.732513 0.284668)"/>
</clipPath>
<clipPath id="clip1_85_151">
<rect width="37.1425" height="32.6854" fill="white" transform="translate(19.2837 21.053)"/>
</clipPath>
</defs>
</svg>
