<svg width="76" height="76" viewBox="0 0 76 76" fill="none" xmlns="http://www.w3.org/2000/svg">
<g clip-path="url(#clip0_85_185)">
<path d="M37.8905 0.891602C39.9415 0.891602 41.6047 2.55484 41.6047 4.60585C41.6047 6.65686 39.9415 8.32011 37.8905 8.32011C21.4802 8.32011 8.17648 21.6238 8.17648 38.0341C8.17648 54.4444 21.4802 67.7481 37.8905 67.7481C54.3008 67.7481 67.6045 54.4444 67.6045 38.0341C67.6045 35.9831 69.2678 34.3199 71.3188 34.3199C73.3698 34.3199 75.033 35.9831 75.033 38.0341C75.033 58.5472 58.4036 75.1766 37.8905 75.1766C17.3774 75.1766 0.747971 58.5472 0.747971 38.0341C0.747971 17.521 17.3774 0.891602 37.8905 0.891602ZM49.2316 10.5695C47.3433 9.76792 46.4622 7.58691 47.2638 5.69933C48.0653 3.811 50.2456 2.92998 52.1339 3.73152C54.0222 4.53305 54.9033 6.71332 54.1017 8.60165C53.3002 10.49 51.1192 11.371 49.2316 10.5695ZM21.9162 37.6337C20.3986 36.1406 20.3778 33.6981 21.8709 32.1805C23.3641 30.6628 25.8065 30.642 27.3242 32.1351L37.4686 42.1324L63.5426 15.5488C65.0357 14.0311 67.4782 14.0103 68.9959 15.5035C70.5135 16.9966 70.5343 19.4391 69.0412 20.9567L40.2624 50.2956C38.7693 51.8133 36.3268 51.8341 34.8091 50.3409L21.9148 37.6322L21.9162 37.6337Z" fill="#C3044D"/>
<path d="M37.8905 0.891602C39.9415 0.891602 41.6047 2.55484 41.6047 4.60585C41.6047 6.65686 39.9415 8.32011 37.8905 8.32011C21.4802 8.32011 8.17648 21.6238 8.17648 38.0341C8.17648 54.4444 21.4802 67.7481 37.8905 67.7481C54.3008 67.7481 67.6045 54.4444 67.6045 38.0341C67.6045 35.9831 69.2678 34.3199 71.3188 34.3199C73.3698 34.3199 75.033 35.9831 75.033 38.0341C75.033 58.5472 58.4036 75.1766 37.8905 75.1766C17.3774 75.1766 0.747971 58.5472 0.747971 38.0341C0.747971 17.521 17.3774 0.891602 37.8905 0.891602ZM21.9162 37.6337C20.3986 36.1406 20.3778 33.6981 21.8709 32.1805C23.3641 30.6628 25.8065 30.642 27.3242 32.1351L37.4686 42.1324L63.5426 15.5488C65.0357 14.0311 67.4782 14.0103 68.9959 15.5035C70.5135 16.9966 70.5343 19.4391 69.0412 20.9567L40.2624 50.2956C38.7693 51.8133 36.3268 51.8341 34.8091 50.3409L21.9148 37.6322L21.9162 37.6337Z" fill="#FBFBFB"/>
</g>
<defs>
<clipPath id="clip0_85_185">
<rect width="74.285" height="74.285" fill="white" transform="translate(0.747971 0.891602)"/>
</clipPath>
</defs>
</svg>
