<svg width="75" height="76" viewBox="0 0 75 76" fill="none" xmlns="http://www.w3.org/2000/svg">
<g clip-path="url(#clip0_85_130)">
<g clip-path="url(#clip1_85_130)">
<path d="M34.9825 0.891602C36.9053 0.891602 38.4646 2.4509 38.4646 4.37374C38.4646 6.29658 36.9053 7.85589 34.9825 7.85589C19.5977 7.85589 7.12533 20.3282 7.12533 35.713C7.12533 51.0978 19.5977 63.5702 34.9825 63.5702C50.3673 63.5702 62.8396 51.0978 62.8396 35.713C62.8396 33.7902 64.3989 32.2309 66.3217 32.2309C68.2446 32.2309 69.8039 33.7902 69.8039 35.713C69.8039 54.9442 54.2136 70.5345 34.9825 70.5345C15.7513 70.5345 0.161041 54.9442 0.161041 35.713C0.161041 16.4818 15.7513 0.891602 34.9825 0.891602ZM45.6148 9.96467C43.8445 9.21323 43.0186 7.16851 43.77 5.39889C44.5214 3.62857 46.5655 2.8026 48.3358 3.55405C50.1061 4.30549 50.9321 6.34951 50.1806 8.11983C49.4292 9.89015 47.3845 10.7161 45.6148 9.96467ZM54.6803 16.0152C53.3201 14.6558 53.3201 12.4509 54.6803 11.0908C56.0397 9.73137 58.2446 9.73137 59.6047 11.0908C60.9641 12.4509 60.9641 14.6558 59.6047 16.0152C58.2446 17.3754 56.0397 17.3754 54.6803 16.0152ZM34.9825 0.891602C36.9053 0.891602 38.4646 2.4509 38.4646 4.37374C38.4646 6.29658 36.9053 7.85589 34.9825 7.85589C19.5977 7.85589 7.12533 20.3282 7.12533 35.713C7.12533 51.0978 19.5977 63.5702 34.9825 63.5702C50.3673 63.5702 62.8396 51.0978 62.8396 35.713C62.8396 33.7902 64.3989 32.2309 66.3217 32.2309C68.2446 32.2309 69.8039 33.7902 69.8039 35.713C69.8039 54.9442 54.2136 70.5345 34.9825 70.5345C15.7513 70.5345 0.161041 54.9442 0.161041 35.713C0.161041 16.4818 15.7513 0.891602 34.9825 0.891602ZM45.6148 9.96467C43.8445 9.21323 43.0186 7.16851 43.77 5.39889C44.5214 3.62857 46.5655 2.8026 48.3358 3.55405C50.1061 4.30549 50.9321 6.34951 50.1806 8.11983C49.4292 9.89015 47.3845 10.7161 45.6148 9.96467ZM48.8929 37.7041C50.3157 39.1039 50.3352 41.3938 48.9354 42.8166C47.5356 44.2394 45.2457 44.2589 43.8229 42.8591L34.3125 33.4865L19.3442 48.9326C17.9443 50.3554 15.6545 50.3749 14.2317 48.9751C12.8089 47.5753 12.7894 45.2854 14.1892 43.8626L31.6932 25.8335C33.0931 24.4107 35.3829 24.3912 36.8057 25.791L48.8943 37.7055L48.8929 37.7034V37.7041ZM32.4537 31.5059C31.0706 30.1458 31.0518 27.92 32.4119 26.5369C33.7721 25.1538 35.9979 25.135 37.381 26.4951L46.6247 35.6051L62.6571 19.1081C64.0173 17.725 66.243 17.7062 67.6262 19.0663C69.0093 20.4264 69.0281 22.6522 67.6679 24.0353L49.1708 43.0422C47.8107 44.4253 45.5849 44.4442 44.2018 43.084L32.4523 31.5038L32.4537 31.5052V31.5059Z" fill="#C3044D"/>
<path d="M34.9825 0.891602C36.9053 0.891602 38.4646 2.4509 38.4646 4.37374C38.4646 6.29658 36.9053 7.85589 34.9825 7.85589C19.5977 7.85589 7.12533 20.3282 7.12533 35.713C7.12533 51.0978 19.5977 63.5702 34.9825 63.5702C50.3673 63.5702 62.8396 51.0978 62.8396 35.713C62.8396 33.7902 64.3989 32.2309 66.3217 32.2309C68.2446 32.2309 69.8039 33.7902 69.8039 35.713C69.8039 54.9442 54.2136 70.5345 34.9825 70.5345C15.7513 70.5345 0.161041 54.9442 0.161041 35.713C0.161041 16.4818 15.7513 0.891602 34.9825 0.891602ZM34.9825 0.891602C36.9053 0.891602 38.4646 2.4509 38.4646 4.37374C38.4646 6.29658 36.9053 7.85589 34.9825 7.85589C19.5977 7.85589 7.12533 20.3282 7.12533 35.713C7.12533 51.0978 19.5977 63.5702 34.9825 63.5702C50.3673 63.5702 62.8396 51.0978 62.8396 35.713C62.8396 33.7902 64.3989 32.2309 66.3217 32.2309C68.2446 32.2309 69.8039 33.7902 69.8039 35.713C69.8039 54.9442 54.2136 70.5345 34.9825 70.5345C15.7513 70.5345 0.161041 54.9442 0.161041 35.713C0.161041 16.4818 15.7513 0.891602 34.9825 0.891602ZM48.8929 37.7041C50.3157 39.1039 50.3352 41.3938 48.9354 42.8166C47.5356 44.2394 45.2457 44.2589 43.8229 42.8591L34.3125 33.4865L19.3442 48.9326C17.9443 50.3554 15.6545 50.3749 14.2317 48.9751C12.8089 47.5753 12.7894 45.2854 14.1892 43.8626L31.6932 25.8335C33.0931 24.4107 35.3829 24.3912 36.8057 25.791L48.8943 37.7055L48.8929 37.7041ZM32.4537 31.5059C31.0706 30.1458 31.0518 27.92 32.4119 26.5369C33.7721 25.1538 35.9979 25.135 37.381 26.4951L46.6247 35.6051L62.6571 19.1081C64.0173 17.725 66.243 17.7062 67.6262 19.0663C69.0093 20.4264 69.0281 22.6522 67.6679 24.0353L49.1708 43.0422C47.8107 44.4253 45.5849 44.4442 44.2018 43.084L32.4523 31.5038L32.4537 31.5059Z" fill="#FBFBFB"/>
</g>
</g>
<defs>
<clipPath id="clip0_85_130">
<rect width="74.285" height="74.285" fill="white" transform="translate(0.161041 0.891602)"/>
</clipPath>
<clipPath id="clip1_85_130">
<rect width="69.6429" height="69.6429" fill="white" transform="translate(0.161041 0.891602)"/>
</clipPath>
</defs>
</svg>
