<svg width="82" height="74" viewBox="0 0 82 74" fill="none" xmlns="http://www.w3.org/2000/svg">
<g clip-path="url(#clip0_85_538)">
<path d="M76.4253 71.5454C75.0358 72.3729 73.4225 72.8177 71.7637 72.8396H71.6352H10.9208C5.60172 72.8396 1.26782 68.5189 1.26782 63.1702C1.26782 61.4637 1.71313 59.7986 2.5625 58.3485L2.56427 58.3454L32.921 5.66625C35.5913 1.05348 41.4914 -0.533494 46.0932 2.13907L46.0935 2.13923C47.5648 2.99244 48.783 4.21332 49.6135 5.66414L49.6142 5.66539L79.9714 58.3462L79.9719 58.3471C82.6407 62.9573 81.0556 68.8675 76.4308 71.5421L76.4253 71.5454ZM37.6919 8.42447L37.691 8.42597L7.33385 61.1068L7.33372 61.1071C6.20109 63.075 6.86803 65.6221 8.83743 66.7608C9.46731 67.1339 10.1858 67.3182 10.9005 67.3182H71.6148C73.9061 67.3182 75.7569 65.4632 75.7569 63.1702C75.7569 62.4546 75.5729 61.735 75.2002 61.1041C75.1998 61.1034 75.1993 61.1026 75.1989 61.1019L44.865 8.4261L44.8641 8.42447C44.1278 7.15704 42.7668 6.34141 41.278 6.36179C39.7892 6.34141 38.4281 7.15704 37.6919 8.42447Z" fill="white" stroke="white"/>
<path d="M41.278 44.8937C39.4875 44.8937 38.0225 43.4264 38.0225 41.633V28.7939C38.0225 27.0005 39.4875 25.5332 41.278 25.5332C43.0685 25.5332 44.5335 27.0005 44.5335 28.7939V41.633C44.5335 43.4264 43.0685 44.8937 41.278 44.8937Z" fill="#C3044C"/>
<path d="M44.6962 53.2289C44.6962 55.12 43.166 56.6527 41.278 56.6527C39.39 56.6527 37.8598 55.12 37.8598 53.2289C37.8598 51.3379 39.39 49.8052 41.278 49.8052C43.166 49.8052 44.6962 51.3379 44.6962 53.2289Z" fill="#C3044C"/>
</g>
<defs>
<clipPath id="clip0_85_538">
<rect width="81" height="73" fill="white" transform="translate(0.767822 0.34082)"/>
</clipPath>
</defs>
</svg>
