<svg width="82" height="69" viewBox="0 0 82 69" fill="none" xmlns="http://www.w3.org/2000/svg">
<mask id="mask0_85_530" style="mask-type:luminance" maskUnits="userSpaceOnUse" x="0" y="7" width="69" height="62">
<path d="M68.5134 7.54102H0.758057V68.6228H68.5134V7.54102Z" fill="white"/>
</mask>
<g mask="url(#mask0_85_530)">
<path fill-rule="evenodd" clip-rule="evenodd" d="M62.8623 50.5116H21.7685L15.7408 56.8687V50.5116H6.39933V13.4406H47.8464C51.3762 13.4406 51.1252 10.4922 51.1252 10.4922C51.0723 7.54024 47.8311 7.6298 47.5397 7.62354H5.43013C5.0715 7.62622 3.55 7.67906 2.26252 8.91951C0.802886 10.3239 0.760746 12.1805 0.758057 12.4984V51.4753C0.760746 51.8398 0.828886 53.4716 2.0823 54.8294C3.41731 56.274 5.10826 56.3385 5.43013 56.3475H10.1049V66.4403C10.0905 66.5514 10.0197 67.3332 10.5872 67.9548C10.6635 68.0399 11.2256 68.6346 12.0585 68.5271C12.6906 68.442 13.069 68.0076 13.1622 67.8966C16.8238 64.0436 20.4828 60.1942 24.1471 56.3475H63.8404C64.1426 56.3421 65.9886 56.2866 67.3389 54.6986C68.4542 53.3883 68.5107 51.8756 68.5134 51.4762V37.8026C68.5134 36.1887 67.2492 34.8838 65.6901 34.8838C64.1309 34.8838 62.8667 36.1887 62.8667 37.8026" fill="white"/>
</g>
<path d="M81.0906 22.4503L69.7372 2.80116C69.2647 1.97807 68.5752 1.28844 67.745 0.808384C65.1458 -0.697166 61.8043 0.193984 60.2953 2.79399L48.9411 22.4459C48.4605 23.2662 48.2059 24.2093 48.2059 25.1721C48.2059 28.1779 50.6535 30.6229 53.6624 30.6229H73.6902H76.3737C77.342 30.6229 78.2852 30.3686 79.1002 29.8858C80.3608 29.155 81.2618 27.979 81.6375 26.5738C82.0132 25.1695 81.8177 23.7042 81.0906 22.4503ZM75.851 24.8757H54.178L65.0185 6.11408L75.851 24.8757Z" fill="#C3044C"/>
<mask id="path-4-outside-1_85_530" maskUnits="userSpaceOnUse" x="62.8562" y="12.0093" width="4" height="12" fill="black">
<rect fill="white" x="62.8562" y="12.0093" width="4" height="12"/>
<path d="M66.3206 12.3452L66.0056 19.6328H63.9988L63.6838 12.3452H66.3206ZM63.6179 21.9033C63.6179 21.5518 63.7449 21.2588 63.9988 21.0244C64.2527 20.7852 64.5823 20.6655 64.9875 20.6655C65.3928 20.6655 65.72 20.7852 65.969 21.0244C66.2229 21.2588 66.3499 21.5518 66.3499 21.9033C66.3499 22.2549 66.2229 22.5503 65.969 22.7896C65.72 23.0239 65.3928 23.1411 64.9875 23.1411C64.5823 23.1411 64.2527 23.0239 63.9988 22.7896C63.7449 22.5503 63.6179 22.2549 63.6179 21.9033Z"/>
</mask>
<path d="M66.3206 12.3452L66.0056 19.6328H63.9988L63.6838 12.3452H66.3206ZM63.6179 21.9033C63.6179 21.5518 63.7449 21.2588 63.9988 21.0244C64.2527 20.7852 64.5823 20.6655 64.9875 20.6655C65.3928 20.6655 65.72 20.7852 65.969 21.0244C66.2229 21.2588 66.3499 21.5518 66.3499 21.9033C66.3499 22.2549 66.2229 22.5503 65.969 22.7896C65.72 23.0239 65.3928 23.1411 64.9875 23.1411C64.5823 23.1411 64.2527 23.0239 63.9988 22.7896C63.7449 22.5503 63.6179 22.2549 63.6179 21.9033Z" fill="#C3044D"/>
<path d="M66.3206 12.3452L66.6203 12.3582L66.6338 12.0452H66.3206V12.3452ZM66.0056 19.6328V19.9328H66.2929L66.3053 19.6458L66.0056 19.6328ZM63.9988 19.6328L63.6991 19.6458L63.7115 19.9328H63.9988V19.6328ZM63.6838 12.3452V12.0452H63.3706L63.3841 12.3582L63.6838 12.3452ZM63.9988 21.0244L64.2023 21.2449L64.2045 21.2428L63.9988 21.0244ZM65.969 21.0244L65.7611 21.2408L65.7655 21.2449L65.969 21.0244ZM65.969 22.7896L66.1746 23.008L66.1747 23.0079L65.969 22.7896ZM63.9988 22.7896L63.793 23.0079L63.7953 23.01L63.9988 22.7896ZM66.0208 12.3323L65.7059 19.6199L66.3053 19.6458L66.6203 12.3582L66.0208 12.3323ZM66.0056 19.3328H63.9988V19.9328H66.0056V19.3328ZM64.2985 19.6199L63.9836 12.3323L63.3841 12.3582L63.6991 19.6458L64.2985 19.6199ZM63.6838 12.6452H66.3206V12.0452H63.6838V12.6452ZM63.9179 21.9033C63.9179 21.6338 64.0111 21.4213 64.2023 21.2449L63.7953 20.804C63.4787 21.0963 63.3179 21.4697 63.3179 21.9033H63.9179ZM64.2045 21.2428C64.3938 21.0644 64.6455 20.9655 64.9875 20.9655V20.3655C64.519 20.3655 64.1116 20.5059 63.793 20.8061L64.2045 21.2428ZM64.9875 20.9655C65.3297 20.9655 65.5776 21.0644 65.7611 21.2407L66.1768 20.8081C65.8624 20.5059 65.4559 20.3655 64.9875 20.3655V20.9655ZM65.7655 21.2449C65.9567 21.4213 66.0499 21.6338 66.0499 21.9033H66.6499C66.6499 21.4697 66.4891 21.0963 66.1725 20.804L65.7655 21.2449ZM66.0499 21.9033C66.0499 22.173 65.9565 22.3891 65.7633 22.5712L66.1747 23.0079C66.4893 22.7114 66.6499 22.3368 66.6499 21.9033H66.0499ZM65.7634 22.5711C65.5801 22.7436 65.3315 22.8411 64.9875 22.8411V23.4411C65.4542 23.4411 65.8599 23.3042 66.1746 23.008L65.7634 22.5711ZM64.9875 22.8411C64.6438 22.8411 64.3913 22.7436 64.2023 22.5691L63.7953 23.01C64.114 23.3042 64.5207 23.4411 64.9875 23.4411V22.8411ZM64.2045 22.5712C64.0113 22.3891 63.9179 22.173 63.9179 21.9033H63.3179C63.3179 22.3368 63.4785 22.7114 63.793 23.0079L64.2045 22.5712Z" fill="#C3044C" mask="url(#path-4-outside-1_85_530)"/>
</svg>
