<svg width="118" height="77" viewBox="0 0 118 77" fill="none" xmlns="http://www.w3.org/2000/svg">
<g clip-path="url(#clip0_85_456)">
<path d="M117.742 29.8982C117.37 28.6714 116.376 27.8126 115.257 27.3219C109.666 25.359 106.684 22.1693 103.205 18.3663C100.099 14.9312 96.6202 11.1282 90.9049 8.67459L92.1473 6.95707C93.3898 5.11688 92.8928 2.54061 91.0291 1.31381C89.1654 0.087018 86.5562 0.577736 85.3137 2.41793L58.9732 40.8166L32.6327 2.29525C31.3903 0.455057 28.7811 -0.0356615 26.9174 1.19113C25.0536 2.41793 24.5566 4.9942 25.7991 6.83439L27.0416 8.55191C21.3262 11.0055 17.8473 14.8086 14.7411 18.2436C11.2622 22.0467 8.40446 25.2363 2.68908 27.1992C1.4466 27.5672 0.576868 28.5487 0.204125 29.7755C-0.168618 31.0023 -0.0443703 32.2291 0.701115 33.3332L15.3623 54.8021C16.1078 55.9062 17.4745 56.6423 18.717 56.6423C19.214 56.6423 19.5867 56.5196 20.0837 56.3969C27.6628 53.698 31.8873 49.1588 35.4904 45.2331C38.7209 41.7981 41.4543 38.7311 46.4242 36.8909L54.0033 47.932L38.9694 70.137C37.7269 71.9772 38.2239 74.5535 40.0876 75.7803C40.8331 76.271 41.5786 76.5164 42.3241 76.5164C43.6908 76.5164 44.9333 75.903 45.6787 74.6762L58.9732 55.2928L72.1435 74.5535C72.889 75.6576 74.2557 76.3937 75.4982 76.3937C76.2436 76.3937 77.1134 76.1483 77.7346 75.6576C79.5983 74.4308 80.0953 71.8546 78.8528 70.0144L63.9431 48.0547L71.5222 37.0136C76.4921 38.7311 79.2256 41.7981 82.456 45.3558C86.0592 49.4042 90.2836 53.9433 97.8627 56.5196C98.3597 56.6423 98.7325 56.765 99.2294 56.765C100.596 56.765 101.839 56.1516 102.584 54.9248L117.245 33.4559C117.991 32.3517 118.239 31.1249 117.742 29.8982ZM29.4023 39.8352C26.5446 42.9022 24.0597 45.6011 20.208 47.564L10.1439 32.8425C14.8653 30.2662 17.9715 26.8312 20.8292 23.7642C24.0597 20.3291 26.7931 17.2622 31.763 15.422L41.8271 30.0208C36.1117 32.5971 32.6327 36.4002 29.4023 39.8352ZM97.7385 47.6867C93.8868 45.7238 91.4018 43.0249 88.5442 39.9579C85.438 36.5229 81.959 32.7198 76.2436 30.2662L86.3077 15.6673C91.2776 17.3848 94.011 20.4518 97.2415 24.0095C100.099 27.0765 103.205 30.5116 107.927 33.0878L97.7385 47.6867Z" fill="#1E1E1E"/>
<path d="M71.521 37.0149C76.4909 38.7324 79.2244 41.7994 82.4548 45.3571C86.058 49.4055 90.2824 53.9447 97.8615 56.5209C98.3585 56.6436 98.7313 56.7663 99.2282 56.7663C100.595 56.7663 101.837 56.1529 102.583 54.9261L117.244 33.4572C117.99 32.3531 118.238 31.1263 117.741 29.8995C117.368 28.6727 116.374 27.8139 115.256 27.3232C109.665 25.3603 106.683 22.1707 103.204 18.3676C100.098 14.9326 96.6191 11.1295 90.9037 8.6759L86.3065 15.6686C91.2764 17.3862 94.0098 20.4531 97.2403 24.0109C100.098 27.0778 103.204 30.5129 107.926 33.0891L97.7373 47.688C93.8856 45.7251 91.4007 43.0262 88.543 39.9592C85.4368 36.5242 81.9578 32.7211 76.2424 30.2675L71.521 37.0149ZM41.8259 30.0222C36.1105 32.5984 32.6315 36.4015 29.4011 39.8365C26.5434 42.9035 24.0585 45.6025 20.2068 47.5653L10.1427 32.8438C14.8641 30.2675 17.9703 26.8325 20.828 23.7655C24.0585 20.3305 26.7919 17.2635 31.7618 15.4233L27.0404 8.55322C21.325 11.0068 17.8461 14.8099 14.7399 18.2449C11.261 22.048 8.40327 25.2376 2.68789 27.2005C1.44541 27.5686 0.575677 28.55 0.202935 29.7768C-0.169808 31.0036 -0.0455605 32.2304 0.699925 33.3345L15.3611 54.8034C16.1066 55.9075 17.4733 56.6436 18.7158 56.6436C19.2128 56.6436 19.5856 56.5209 20.0825 56.3983C27.6616 53.6993 31.8861 49.1602 35.4892 45.2344C38.7197 41.7994 41.4531 38.7324 46.423 36.8922L41.8259 30.0222Z" fill="#C3044D"/>
</g>
<defs>
<clipPath id="clip0_85_456">
<rect width="118" height="76" fill="white" transform="translate(0 0.516602)"/>
</clipPath>
</defs>
</svg>
