<svg width="54" height="82" viewBox="0 0 54 82" fill="none" xmlns="http://www.w3.org/2000/svg">
<g clip-path="url(#clip0_85_551)">
<path d="M48.4894 43.4205C48.6993 41.9484 48.3149 40.4528 47.4186 39.2612C46.5223 38.0696 45.1882 37.2793 43.7095 37.0638L36.0578 35.9486L36.4299 33.396C37.7275 32.9241 38.9487 32.267 40.0562 31.4452C41.7119 30.2077 43.1042 28.6561 44.1525 26.8797C45.2009 25.1032 45.8848 23.1368 46.1651 21.095C46.4802 19.0563 46.3856 16.9744 45.8868 14.9711C45.3879 12.9679 44.494 11.0818 43.2578 9.4228C41.9419 7.6964 40.2736 6.2661 38.3635 5.22573L36.531 4.16146C35.9618 3.8327 35.2658 3.80567 34.6733 4.09002C34.0809 4.37438 33.6695 4.93292 33.5746 5.58009L31.851 17.4065C31.7973 17.7747 31.5502 18.0861 31.203 18.2228C30.8557 18.3602 30.4607 18.3027 30.1671 18.0719C29.8735 17.8411 29.7256 17.4721 29.7791 17.1045L31.5016 5.28594C31.596 4.63803 31.3606 3.98522 30.8745 3.54434C30.3878 3.10272 29.7131 2.92998 29.0737 3.0826L27.0137 3.57956C24.884 4.02719 22.8753 4.91895 21.1183 6.19616C17.8041 8.72257 15.6142 12.4386 15.0148 16.5511C14.4154 20.6637 15.4536 24.8502 17.9089 28.2174C15.0073 28.0683 12.1555 29.0032 9.91302 30.8388C7.67132 32.6738 6.19997 35.2769 5.78768 38.1378L3.58399 53.2584C3.14582 56.297 3.93583 59.3864 5.7829 61.8492C7.62932 64.3119 10.3811 65.9473 13.4345 66.397L15.632 66.7172L15.2349 69.4416C14.8309 72.2134 15.9441 74.9918 18.1559 76.7299C20.3678 78.4679 23.3415 78.9013 25.9567 77.8668C28.5726 76.8323 30.4325 74.4872 30.8365 71.7154L31.2347 68.9832L35.2214 69.5642C37.7562 69.9337 40.4492 67.6236 40.8724 64.7197C41.0129 63.7557 40.8966 62.7708 40.5352 61.8644C42.0871 60.9446 43.1444 59.3821 43.4161 57.6047C43.5686 56.5999 43.4412 55.5722 43.0477 54.6333C44.2779 53.9782 45.218 52.8895 45.6827 51.58C46.148 50.2707 46.1048 48.8348 45.5622 47.5539C47.1438 46.7188 48.2305 45.1838 48.4888 43.4204L48.4894 43.4205ZM23.4944 9.36454C24.5979 8.56142 25.8416 7.96939 27.1629 7.61921L25.8637 16.5339C25.6069 18.2961 26.3145 20.0628 27.7209 21.1679C29.1274 22.2731 31.0181 22.5486 32.6808 21.8908C34.3442 21.233 35.5266 19.7418 35.7834 17.9796L37.0826 9.06492C38.2464 9.77794 39.2674 10.7 40.0926 11.7836C41.0133 13.0279 41.677 14.4406 42.0454 15.9406C42.4145 17.4406 42.4807 18.9982 42.2411 20.5231C42.0341 22.0535 41.5248 23.5271 40.7422 24.8593C39.959 26.1915 38.9184 27.3558 37.6797 28.2847C36.6001 29.0794 35.3812 29.6664 34.0852 30.0169C33.7211 30.1227 33.3957 30.3303 33.1466 30.6142C32.8975 30.8982 32.7362 31.2487 32.6811 31.622L32.1339 35.3767L24.3802 34.2467L24.9274 30.4919C24.9819 30.1185 24.9266 29.7371 24.769 29.3933C24.6114 29.0494 24.3586 28.7582 24.0399 28.5529C22.8978 27.8471 21.8971 26.9366 21.0893 25.8668C19.2491 23.3432 18.4706 20.2071 18.9199 17.1243C19.3692 14.0415 21.0104 11.2579 23.4944 9.36454ZM26.921 71.1447C26.7202 72.5225 25.7957 73.6879 24.4959 74.202C23.1961 74.7161 21.718 74.5007 20.619 73.637C19.52 72.7733 18.9665 71.3925 19.1673 70.0147L19.5655 67.2825L27.3192 68.4126L26.921 71.1447ZM35.7987 65.6624L14.0052 62.4862C11.9892 62.1904 10.1723 61.1111 8.95324 59.4852C7.73422 57.8593 7.21259 55.8201 7.50301 53.8137L9.70443 38.7087C9.99868 36.7034 11.0807 34.8973 12.7131 33.687C14.3455 32.4767 16.3949 31.9609 18.4114 32.2528L20.6088 32.573L20.4484 33.6737L20.3542 33.66C19.6532 33.5578 18.9515 33.8355 18.513 34.3881C18.0745 34.9407 17.966 35.6849 18.2286 36.3397C18.4911 36.9944 19.0843 37.4609 19.7854 37.5631L43.1407 40.9669C43.7325 41.0531 44.2336 41.4464 44.4548 41.9995C44.6762 42.5519 44.5847 43.1796 44.2148 43.6466C43.845 44.1128 43.2524 44.3474 42.6606 44.2611L40.6437 43.9672C39.9469 43.8357 39.2335 44.0838 38.7715 44.6184C38.3096 45.153 38.1697 45.8926 38.4047 46.5579C38.6396 47.2239 39.2131 47.7154 39.91 47.8462C40.1237 47.9704 40.3594 48.0532 40.6037 48.0908C41.1956 48.1771 41.6966 48.5703 41.9179 49.1234C42.1392 49.6758 42.0478 50.3036 41.6778 50.7705C41.308 51.2368 40.7155 51.4713 40.1236 51.385L38.1067 51.0911C37.4099 50.9596 36.6965 51.2078 36.2345 51.7423C35.7726 52.2769 35.6329 53.0159 35.8677 53.6819C36.1026 54.3479 36.6762 54.8387 37.373 54.9702C37.5867 55.0943 37.8224 55.1772 38.0667 55.2148C38.4938 55.277 38.8807 55.5001 39.1465 55.8392C39.4123 56.1782 39.5364 56.6055 39.4928 57.033C39.3839 57.698 38.9492 58.2651 38.3346 58.5462L35.5721 58.1436C34.8753 58.0122 34.1619 58.2603 33.7 58.7949C33.2381 59.3288 33.0983 60.0684 33.3331 60.7344C33.5681 61.3998 34.1417 61.8913 34.8385 62.0227C35.0521 62.1469 35.2878 62.2297 35.5321 62.2673C35.9732 62.3296 36.3712 62.5637 36.6381 62.9181C36.9051 63.2726 37.0197 63.7184 36.9558 64.1569C36.8457 64.8211 36.4118 65.3877 35.7976 65.6702L35.7987 65.6624Z" fill="#FBFBFB"/>
<path d="M36.0653 35.9368C36.1542 35.3271 36.3504 33.9807 36.4392 33.3713C37.6616 33.3231 39.0059 32.2199 40.0226 31.4699C40.0338 31.4616 40.045 31.4532 40.0555 31.4455C41.7112 30.208 43.1035 28.6564 44.1518 26.8799C45.2001 25.1035 45.8841 23.1371 46.1643 21.0952C46.4795 19.0565 46.3848 16.9746 45.886 14.9714C45.3872 12.9681 44.4933 11.082 43.2571 9.42304C41.9412 7.69664 40.2729 6.26634 38.3627 5.22597L36.5302 4.1617C35.961 3.83294 35.265 3.80591 34.6726 4.09026C34.0801 4.37462 33.6688 4.93316 33.5738 5.58033L31.8531 17.3872C31.8119 17.6695 31.6658 17.9299 31.4338 18.0967C31.0428 18.3779 30.5276 18.3566 30.167 18.0722C29.8734 17.8414 29.7255 17.4724 29.7791 17.1049L31.496 5.32401C31.5712 4.80815 31.4576 4.27674 31.1513 3.85343C30.6698 3.18867 29.846 2.89787 29.0736 3.08293L27.0136 3.5799C24.8839 4.02753 22.8752 4.91928 21.1182 6.1965C17.804 8.72291 15.6141 12.4389 15.0147 16.5515C14.4154 20.664 15.4535 24.8505 17.9088 28.2178C19.2123 29.7132 19.339 29.6 20.8963 30.4889L20.4349 33.6542L24.4474 34.3311C24.5018 33.9577 25.2306 29.7811 25.073 29.4373C24.9154 29.0934 24.3578 28.7591 24.0391 28.5538C22.897 27.8479 21.8963 26.9375 21.0885 25.8677C19.2482 23.3441 18.4697 20.2079 18.919 17.1251C19.3683 14.0423 21.0096 11.2588 23.4935 9.36543C24.597 8.56231 25.8408 7.97028 27.1621 7.6201L25.8629 16.5348C25.606 18.297 26.3137 20.0636 27.7201 21.1688C29.1266 22.2739 31.0172 22.5495 32.68 21.8916C34.3433 21.2339 35.5257 19.7427 35.7826 17.9805L37.082 9.06451C38.2457 9.77753 39.2668 10.6996 40.092 11.7832C41.0126 13.0275 41.6763 14.4402 42.0448 15.9402C42.4139 17.4402 42.4801 18.9978 42.2405 20.5227C42.0335 22.0531 41.5242 23.5267 40.7416 24.8589C39.9584 26.191 38.9178 27.3554 37.6791 28.2843C36.5995 29.079 35.3805 29.666 34.0845 30.0165C33.7205 30.1223 33.3596 30.2353 32.8751 30.9338C32.569 31.375 32.1596 34.9862 32.1045 35.3595L33.2522 35.5268L36.0653 35.9368ZM27.3192 68.4122L26.921 71.1444C26.7202 72.5222 25.7957 73.6876 24.4959 74.2017C23.1961 74.7157 21.7181 74.5003 20.619 73.6366C19.52 72.7729 18.9666 71.3922 19.1674 70.0144L19.5655 67.2822L15.6321 66.7163L15.235 69.4406C14.831 72.2125 15.9442 74.9908 18.156 76.7289C20.3679 78.467 23.3416 78.9003 25.9568 77.8658C28.5727 76.8313 30.4326 74.4863 30.8366 71.7144L31.2348 68.9822L27.3187 68.4115L27.3192 68.4122Z" fill="#C3044D"/>
</g>
<defs>
<clipPath id="clip0_85_551">
<rect width="43.0172" height="75.651" fill="white" transform="translate(11.2963 0.34082) rotate(8.29197)"/>
</clipPath>
</defs>
</svg>
