<svg width="1920" height="9100" viewBox="0 0 1920 9100" fill="none" xmlns="http://www.w3.org/2000/svg">
<path d="M6.10352e-05 0.00244141H1920V9027.74H6.10352e-05V0.00244141Z" fill="#BDEBF6"/>
<rect x="1920" y="1244.54" width="1920" height="1244.54" transform="rotate(-180 1920 1244.54)" fill="url(#paint0_linear_85_109)"/>
<g style="mix-blend-mode:color-burn" opacity="0.05">
<path d="M-82.073 1722.75L498.17 557.921C499.597 555.056 503.023 553.816 505.954 555.103L1451.19 970.443C1455.86 972.495 1456 979.071 1451.42 981.321L-74.0567 1730.81C-79.2088 1733.34 -84.6325 1727.88 -82.073 1722.75Z" fill="#00404E"/>
</g>
<g style="mix-blend-mode:color-burn" opacity="0.05">
<path d="M1143.51 1736.12L2111.62 2378.93C2115.04 2381.21 2115.22 2386.18 2111.96 2388.69L1574.2 2802.84C1571.06 2805.26 1566.47 2804.02 1564.98 2800.35L1134.64 1743.38C1132.41 1737.91 1138.59 1732.86 1143.51 1736.12Z" fill="#00404E"/>
</g>
<g style="mix-blend-mode:color-burn" opacity="0.05">
<path d="M-116.502 3224.72L750.688 3998.3C753.757 4001.03 753.225 4005.98 749.645 4008L158.596 4341.73C155.144 4343.68 150.784 4341.8 149.825 4337.95L-126.318 3230.65C-127.747 3224.92 -120.909 3220.79 -116.502 3224.72Z" fill="#00404E"/>
</g>
<g style="mix-blend-mode:color-burn" opacity="0.05">
<path d="M2063.22 4728.54L1354.39 5649.41C1351.88 5652.66 1346.92 5652.49 1344.64 5649.07L969.038 5083.7C966.844 5080.4 968.399 5075.92 972.166 5074.68L2056.59 4719.18C2062.21 4717.34 2066.82 4723.86 2063.22 4728.54Z" fill="#00404E"/>
</g>
<g style="mix-blend-mode:color-burn" opacity="0.05">
<path d="M684.853 7335.6L-171.455 6550C-174.485 6547.22 -173.884 6542.28 -170.276 6540.31L425.374 6214.86C428.853 6212.96 433.186 6214.9 434.092 6218.76L694.751 7329.81C696.099 7335.56 689.205 7339.59 684.853 7335.6Z" fill="#00404E"/>
</g>
<g style="mix-blend-mode:color-burn" opacity="0.05">
<path d="M1012.82 8932.69L1529.34 7891.71C1531.17 7888.03 1536.08 7887.23 1538.97 7890.15L2017.21 8371.82C2020 8374.63 2019.35 8379.34 2015.89 8381.28L1021.13 8940.59C1015.98 8943.48 1010.19 8937.98 1012.82 8932.69Z" fill="#00404E"/>
</g>
<defs>
<linearGradient id="paint0_linear_85_109" x1="2880" y1="1244.54" x2="2880" y2="2489.08" gradientUnits="userSpaceOnUse">
<stop stop-color="white" stop-opacity="0"/>
<stop offset="1" stop-color="white"/>
</linearGradient>
</defs>
</svg>
