<svg width="76" height="75" viewBox="0 0 76 75" fill="none" xmlns="http://www.w3.org/2000/svg">
<g clip-path="url(#clip0_85_167)">
<g clip-path="url(#clip1_85_167)">
<g clip-path="url(#clip2_85_167)">
<path d="M38.0182 0.284668C40.0692 0.284668 41.7324 1.94791 41.7324 3.99892C41.7324 6.04993 40.0692 7.71317 38.0182 7.71317C21.6079 7.71317 8.30418 21.0169 8.30418 37.4272C8.30418 53.8375 21.6079 67.1412 38.0182 67.1412C54.4285 67.1412 67.7322 53.8375 67.7322 37.4272C67.7322 35.3762 69.3955 33.7129 71.4465 33.7129C73.4975 33.7129 75.1607 35.3762 75.1607 37.4272C75.1607 57.9403 58.5313 74.5697 38.0182 74.5697C17.5051 74.5697 0.875671 57.9403 0.875671 37.4272C0.875671 16.9141 17.5051 0.284668 38.0182 0.284668ZM49.3593 9.96252C47.471 9.16099 46.5899 6.97998 47.3915 5.0924C48.193 3.20407 50.3733 2.32305 52.2616 3.12459C54.1499 3.92612 55.031 6.10639 54.2294 7.99471C53.4279 9.88304 51.2469 10.7641 49.3593 9.96252ZM38.0182 0.284668C40.0692 0.284668 41.7324 1.94791 41.7324 3.99892C41.7324 6.04993 40.0692 7.71317 38.0182 7.71317C21.6079 7.71317 8.30418 21.0169 8.30418 37.4272C8.30418 53.8375 21.6079 67.1412 38.0182 67.1412C54.4285 67.1412 67.7322 53.8375 67.7322 37.4272C67.7322 35.3762 69.3955 33.7129 71.4465 33.7129C73.4975 33.7129 75.1607 35.3762 75.1607 37.4272C75.1607 57.9403 58.5313 74.5697 38.0182 74.5697C17.5051 74.5697 0.875671 57.9403 0.875671 37.4272C0.875671 16.9141 17.5051 0.284668 38.0182 0.284668ZM49.3593 9.96252C47.471 9.16099 46.5899 6.97998 47.3915 5.0924C48.193 3.20407 50.3733 2.32305 52.2616 3.12459C54.1499 3.92612 55.031 6.10639 54.2294 7.99471C53.4279 9.88304 51.2469 10.7641 49.3593 9.96252Z" fill="#C3044D"/>
<path d="M36.1224 64.1097L11.1738 39.161C10.4577 38.4449 10.4577 37.3143 11.1738 36.5982L20.2938 27.4782C20.6704 27.1016 21.1607 26.9129 21.726 26.9508C22.2534 27.0266 22.7437 27.2903 23.0453 27.7427C23.8743 28.9483 24.5904 30.1168 25.1557 31.2853C25.5324 32.0393 26.0977 32.6046 26.8138 33.0192C28.0573 33.7353 29.7161 33.7353 30.9596 32.9441C32.0902 32.2659 32.8063 31.1724 32.9571 29.8918C33.1458 28.1958 32.241 26.462 30.7338 25.7088C29.6411 25.1435 28.5104 24.4652 27.1911 23.5983C26.7387 23.2967 26.475 22.8072 26.3993 22.279C26.3235 21.7516 26.5501 21.2242 26.9267 20.8468L36.0853 11.6882C36.8014 10.9721 37.932 10.9721 38.6481 11.6882L46.2609 19.3009C46.5625 18.7735 46.8262 18.2832 47.0899 17.7937C47.4294 17.0776 47.9568 16.3994 48.5221 15.8341C50.218 14.1381 52.5171 13.347 54.8913 13.6107C57.2654 13.8744 59.3387 15.1937 60.6194 17.3042C62.0895 19.6783 62.1645 22.7686 60.7323 25.1806C59.9404 26.4999 58.8106 27.5547 57.4913 28.2709C57.001 28.5346 56.5114 28.7983 56.0212 29.062L63.6339 36.6747C64.35 37.3908 64.35 38.5215 63.6339 39.2376L54.5139 48.3575C54.1373 48.7342 53.647 48.9228 53.0817 48.885C52.5543 48.8092 52.064 48.5455 51.7624 48.0931C50.9334 46.8874 50.2173 45.7189 49.652 44.5504C49.3125 43.8343 48.71 43.2311 47.9939 42.8166C46.7504 42.1005 45.0916 42.1005 43.8481 42.8916C42.7175 43.5699 42.0014 44.6633 41.8506 45.944C41.6619 47.6399 42.5667 49.3738 44.0739 50.127C45.1666 50.6923 46.2973 51.3705 47.6166 52.2374C48.069 52.539 48.3327 53.0286 48.4084 53.5567C48.4842 54.0842 48.2576 54.6116 47.881 54.989L38.761 64.1089C37.932 64.7879 36.8014 64.7879 36.1224 64.1089V64.1097ZM14.9802 37.9175L37.3667 60.3041L43.6601 54.0099C43.2456 53.7462 42.7932 53.5196 42.3787 53.3317C41.6247 52.955 40.9844 52.4648 40.4191 51.8994C38.7232 50.2035 37.932 47.9044 38.1957 45.5302C38.4594 43.1561 39.7787 41.0828 41.8892 39.8021C44.2633 38.332 47.3536 38.257 49.7656 39.6892C51.0849 40.4811 52.1398 41.611 52.8559 42.9303C53.0446 43.3448 53.3083 43.7593 53.5341 44.2117L59.7904 37.9554L51.8761 30.0411C51.4994 29.6644 51.3107 29.1742 51.3486 28.6089C51.3865 28.0435 51.6881 27.5911 52.0647 27.2896C53.3462 26.3848 54.5518 25.6315 55.7961 24.9904C56.5122 24.6509 57.1154 24.0485 57.5299 23.3324C58.246 22.0889 58.246 20.4301 57.4549 19.1865C56.7766 18.0559 55.6832 17.3398 54.3646 17.2269C53.0832 17.0761 51.8775 17.5285 50.9728 18.4325C50.6712 18.7341 50.4074 19.0729 50.2188 19.4881C49.6156 20.6945 48.8623 21.9002 47.9196 23.2195C47.618 23.6719 47.1285 23.9356 46.6003 24.0114C46.0729 24.0871 45.5455 23.8606 45.1681 23.4839L37.2917 15.6075L31.1112 21.788C31.5257 22.0517 31.9781 22.2783 32.3926 22.4662C33.1466 22.8428 33.7869 23.3331 34.3522 23.8984C36.0481 25.5944 36.8393 27.8935 36.5756 30.2676C36.3119 32.6418 34.9926 34.7151 32.8821 35.9958C30.508 37.4659 27.4177 37.5409 25.0057 36.1087C23.6864 35.3168 22.6315 34.1869 21.9154 32.8676C21.7267 32.4531 21.463 32.0386 21.2372 31.5862L14.9438 37.8796L14.9817 37.9175H14.9802Z" fill="#C3044D"/>
<path d="M37.3852 65.7321C36.6268 65.7321 35.8899 65.4528 35.335 64.8979L10.3863 39.9492C9.82919 39.3921 9.52313 38.6574 9.52313 37.8796C9.52313 37.1019 9.82993 36.3672 10.3863 35.8101L19.5063 26.6901C20.1132 26.0824 20.9281 25.7801 21.8002 25.8388L21.8834 25.8477C22.7496 25.9717 23.5088 26.4338 23.9671 27.1172C24.8957 28.4685 25.6118 29.6711 26.1548 30.7921C26.4208 31.321 26.8189 31.734 27.3716 32.0542C28.2838 32.5794 29.4865 32.5593 30.3608 32.003L30.3861 31.9874C31.2203 31.4867 31.7403 30.6963 31.8502 29.7603C31.9869 28.5286 31.308 27.2405 30.2353 26.7035L30.2219 26.6968C29.1247 26.1292 27.9674 25.4399 26.579 24.5276L26.573 24.5232C25.8859 24.0649 25.4209 23.3042 25.2968 22.435C25.1765 21.5941 25.4914 20.7049 26.14 20.0572L35.2986 10.8986C36.4589 9.73824 38.2766 9.73824 39.437 10.8986L46.0023 17.4639C46.0342 17.4052 46.0654 17.3465 46.0974 17.2878C46.5579 16.3273 47.2414 15.5384 47.7354 15.0444C49.6527 13.1271 52.3054 12.2 55.0153 12.5016C57.7356 12.804 60.1246 14.3409 61.5702 16.7195C63.2691 19.4673 63.3174 23.0107 61.692 25.7481C60.8118 27.2145 59.5445 28.4232 58.0246 29.2492L57.8701 29.3324L64.4242 35.8866C64.9814 36.4437 65.2874 37.1784 65.2874 37.9562C65.2874 38.7339 64.9806 39.4686 64.4242 40.0257L55.3043 49.1457C54.6974 49.7534 53.8825 50.0557 53.0103 49.997L52.9271 49.9881C52.061 49.8641 51.3018 49.402 50.8434 48.7186C49.9127 47.3644 49.1958 46.1595 48.652 45.0363L48.6483 45.0281C48.4188 44.543 47.9887 44.1003 47.439 43.7816C46.5267 43.2564 45.3241 43.2764 44.4497 43.8328L44.4245 43.8484C43.5903 44.3491 43.0703 45.1395 42.9603 46.0755C42.8236 47.3072 43.5026 48.5953 44.5753 49.1323L44.5886 49.139C45.6858 49.7066 46.8432 50.3959 48.2316 51.3081L48.2375 51.3126C48.9247 51.7709 49.3897 52.5316 49.5137 53.4008C49.6341 54.2417 49.3191 55.1301 48.6706 55.7786L39.5113 64.938L39.4682 64.9729C38.8479 65.4803 38.108 65.7328 37.3867 65.7328L37.3852 65.7321ZM16.5186 37.8796L37.3667 58.7277L41.8044 54.2892C41.0163 53.8851 40.3046 53.3599 39.6309 52.6869C37.7136 50.7696 36.7865 48.1161 37.0881 45.4069C37.3904 42.6866 38.9274 40.2976 41.3067 38.852C44.0545 37.1531 47.5972 37.1056 50.3346 38.7309C51.7876 39.6031 52.9881 40.8555 53.8126 42.3575L58.2148 37.9562L51.0886 30.83C50.4817 30.2231 50.1786 29.4082 50.2373 28.5361C50.2923 27.7115 50.6941 26.9605 51.3686 26.4212L51.4221 26.3811C52.8135 25.399 54.0414 24.6428 55.2857 24.0017L55.3191 23.9854C55.8042 23.7558 56.2469 23.3257 56.5656 22.776C57.0908 21.8638 57.0708 20.6611 56.5144 19.7868L56.4988 19.7615C55.9966 18.9243 55.2047 18.4192 54.2687 18.339L54.2338 18.3352C53.3186 18.2275 52.4398 18.5425 51.7601 19.2222C51.515 19.4673 51.3471 19.6991 51.2327 19.9509L51.2149 19.9881C50.6072 21.2034 49.851 22.4328 48.8348 23.8561C48.3757 24.5336 47.6195 24.9927 46.7578 25.116C45.9176 25.2363 45.0284 24.9214 44.3799 24.2728L37.2916 17.1838L32.9668 21.5087C33.7549 21.9128 34.4666 22.438 35.1403 23.111C37.0576 25.0283 37.9847 27.6818 37.6831 30.391C37.3808 33.1113 35.8431 35.5003 33.4645 36.9466C30.7167 38.6455 27.174 38.6931 24.4366 37.0677C22.9836 36.1956 21.7831 34.9432 20.9586 33.4411L16.5193 37.8804L16.5186 37.8796Z" fill="#C3044D"/>
<path d="M67.6113 19.2272C65.7089 19.9953 64.7907 22.1599 65.5588 24.0624C66.3269 25.9641 68.4923 26.883 70.394 26.1149C72.2957 25.3468 73.2146 23.1814 72.4465 21.2797C71.6784 19.3772 69.513 18.4591 67.6113 19.2272Z" fill="#C3044D"/>
</g>
</g>
<path d="M38.0179 0.284668C40.069 0.284668 41.7322 1.94791 41.7322 3.99892C41.7322 6.04993 40.069 7.71317 38.0179 7.71317C21.6076 7.71317 8.30393 21.0169 8.30393 37.4272C8.30393 53.8375 21.6076 67.1412 38.0179 67.1412C54.4283 67.1412 67.732 53.8375 67.732 37.4272C67.732 35.3762 69.3952 33.7129 71.4462 33.7129C73.4972 33.7129 75.1605 35.3762 75.1605 37.4272C75.1605 57.9403 58.531 74.5697 38.0179 74.5697C17.5049 74.5697 0.875427 57.9403 0.875427 37.4272C0.875427 16.9141 17.5049 0.284668 38.0179 0.284668ZM38.0179 0.284668C40.069 0.284668 41.7322 1.94791 41.7322 3.99892C41.7322 6.04993 40.069 7.71317 38.0179 7.71317C21.6076 7.71317 8.30393 21.0169 8.30393 37.4272C8.30393 53.8375 21.6076 67.1412 38.0179 67.1412C54.4283 67.1412 67.732 53.8375 67.732 37.4272C67.732 35.3762 69.3952 33.7129 71.4462 33.7129C73.4972 33.7129 75.1605 35.3762 75.1605 37.4272C75.1605 57.9403 58.531 74.5697 38.0179 74.5697C17.5049 74.5697 0.875427 57.9403 0.875427 37.4272C0.875427 16.9141 17.5049 0.284668 38.0179 0.284668Z" fill="#FBFBFB"/>
<path d="M36.1222 64.1097L11.1736 39.161C10.4574 38.4449 10.4574 37.3143 11.1736 36.5982L20.2935 27.4782C20.6702 27.1016 21.1604 26.9129 21.7257 26.9508C22.2532 27.0266 22.7434 27.2903 23.045 27.7427C23.8741 28.9483 24.5902 30.1168 25.1555 31.2853C25.5321 32.0393 26.0974 32.6046 26.8135 33.0192C28.0571 33.7353 29.7158 33.7353 30.9594 32.9441C32.09 32.2659 32.8061 31.1724 32.9569 29.8918C33.1456 28.1958 32.2408 26.462 30.7335 25.7088C29.6408 25.1435 28.5102 24.4652 27.1909 23.5983C26.7385 23.2967 26.4748 22.8072 26.399 22.279C26.3232 21.7516 26.5498 21.2242 26.9264 20.8468L36.085 11.6882C36.8012 10.9721 37.9318 10.9721 38.6479 11.6882L46.2606 19.3009C46.5622 18.7735 46.8259 18.2832 47.0896 17.7937C47.4291 17.0776 47.9565 16.3994 48.5218 15.8341C50.2178 14.1381 52.5169 13.347 54.891 13.6107C57.2652 13.8744 59.3385 15.1937 60.6192 17.3042C62.0893 19.6783 62.1643 22.7686 60.7321 25.1806C59.9402 26.4999 58.8103 27.5547 57.491 28.2709C57.0007 28.5346 56.5112 28.7983 56.0209 29.062L63.6336 36.6747C64.3498 37.3908 64.3498 38.5215 63.6336 39.2376L54.5137 48.3575C54.137 48.7342 53.6468 48.9228 53.0815 48.885C52.554 48.8092 52.0638 48.5455 51.7622 48.0931C50.9331 46.8874 50.217 45.7189 49.6517 44.5504C49.3122 43.8343 48.7098 43.2311 47.9937 42.8166C46.7501 42.1005 45.0914 42.1005 43.8478 42.8916C42.7172 43.5699 42.0011 44.6633 41.8503 45.944C41.6616 47.6399 42.5664 49.3738 44.0737 50.127C45.1664 50.6923 46.297 51.3705 47.6163 52.2374C48.0687 52.539 48.3324 53.0286 48.4082 53.5567C48.484 54.0842 48.2574 54.6116 47.8808 54.989L38.7608 64.1089C37.9318 64.7879 36.8012 64.7879 36.1222 64.1089V64.1097ZM14.9799 37.9175L37.3665 60.3041L43.6599 54.0099C43.2454 53.7462 42.793 53.5196 42.3785 53.3317C41.6245 52.955 40.9841 52.4648 40.4188 51.8994C38.7229 50.2035 37.9318 47.9044 38.1955 45.5302C38.4592 43.1561 39.7785 41.0828 41.8889 39.8021C44.2631 38.332 47.3533 38.257 49.7654 39.6892C51.0847 40.4811 52.1395 41.611 52.8556 42.9303C53.0443 43.3448 53.308 43.7593 53.5339 44.2117L59.7901 37.9554L51.8758 30.0411C51.4992 29.6644 51.3105 29.1742 51.3484 28.6089C51.3863 28.0435 51.6879 27.5911 52.0645 27.2896C53.3459 26.3848 54.5516 25.6315 55.7958 24.9904C56.5119 24.6509 57.1151 24.0485 57.5296 23.3324C58.2458 22.0889 58.2458 20.4301 57.4546 19.1865C56.7764 18.0559 55.6829 17.3398 54.3644 17.2269C53.0829 17.0761 51.8773 17.5285 50.9725 18.4325C50.6709 18.7341 50.4072 19.0729 50.2185 19.4881C49.6153 20.6945 48.8621 21.9002 47.9194 23.2195C47.6178 23.6719 47.1283 23.9356 46.6001 24.0114C46.0727 24.0871 45.5452 23.8606 45.1679 23.4839L37.2914 15.6075L31.1109 21.788C31.5254 22.0517 31.9778 22.2783 32.3923 22.4662C33.1463 22.8428 33.7867 23.3331 34.352 23.8984C36.0479 25.5944 36.839 27.8935 36.5753 30.2676C36.3116 32.6418 34.9923 34.7151 32.8819 35.9958C30.5077 37.4659 27.4175 37.5409 25.0054 36.1087C23.6861 35.3168 22.6313 34.1869 21.9152 32.8676C21.7265 32.4531 21.4628 32.0386 21.2369 31.5862L14.9435 37.8796L14.9814 37.9175H14.9799Z" fill="#FBFBFB"/>
<path d="M37.385 65.7321C36.6265 65.7321 35.8896 65.4528 35.3347 64.8979L10.3861 39.9492C9.82894 39.3921 9.52289 38.6574 9.52289 37.8796C9.52289 37.1019 9.82969 36.3672 10.3861 35.8101L19.5061 26.6901C20.113 26.0824 20.9279 25.7801 21.8 25.8388L21.8832 25.8477C22.7493 25.9717 23.5085 26.4338 23.9669 27.1172C24.8954 28.4685 25.6115 29.6711 26.1546 30.7921C26.4205 31.321 26.8187 31.734 27.3714 32.0542C28.2836 32.5794 29.4863 32.5593 30.3606 32.003L30.3858 31.9874C31.2201 31.4867 31.7401 30.6963 31.85 29.7603C31.9867 28.5286 31.3077 27.2405 30.235 26.7035L30.2217 26.6968C29.1245 26.1292 27.9671 25.4399 26.5787 24.5276L26.5728 24.5232C25.8857 24.0649 25.4206 23.3042 25.2966 22.435C25.1762 21.5941 25.4912 20.7049 26.1397 20.0572L35.2983 10.8986C36.4586 9.73824 38.2764 9.73824 39.4367 10.8986L46.002 17.4639C46.034 17.4052 46.0652 17.3465 46.0971 17.2878C46.5577 16.3273 47.2411 15.5384 47.7351 15.0444C49.6524 13.1271 52.3051 12.2 55.0151 12.5016C57.7354 12.804 60.1244 14.3409 61.57 16.7195C63.2689 19.4673 63.3172 23.0107 61.6918 25.7481C60.8115 27.2145 59.5442 28.4232 58.0243 29.2492L57.8698 29.3324L64.424 35.8866C64.9811 36.4437 65.2872 37.1784 65.2872 37.9562C65.2872 38.7339 64.9804 39.4686 64.424 40.0257L55.304 49.1457C54.6971 49.7534 53.8822 50.0557 53.0101 49.997L52.9269 49.9881C52.0607 49.8641 51.3015 49.402 50.8432 48.7186C49.9124 47.3644 49.1956 46.1595 48.6518 45.0363L48.6481 45.0281C48.4185 44.543 47.9884 44.1003 47.4387 43.7816C46.5265 43.2564 45.3238 43.2764 44.4495 43.8328L44.4242 43.8484C43.59 44.3491 43.07 45.1395 42.9601 46.0755C42.8234 47.3072 43.5024 48.5953 44.575 49.1323L44.5884 49.139C45.6856 49.7066 46.843 50.3959 48.2313 51.3081L48.2373 51.3126C48.9244 51.7709 49.3894 52.5316 49.5135 53.4008C49.6338 54.2417 49.3189 55.1301 48.6704 55.7786L39.511 64.938L39.4679 64.9729C38.8477 65.4803 38.1078 65.7328 37.3865 65.7328L37.385 65.7321ZM16.5183 37.8796L37.3664 58.7277L41.8042 54.2892C41.016 53.8851 40.3044 53.3599 39.6306 52.6869C37.7133 50.7696 36.7862 48.1161 37.0878 45.4069C37.3902 42.6866 38.9271 40.2976 41.3065 38.852C44.0543 37.1531 47.597 37.1056 50.3344 38.7309C51.7874 39.6031 52.9878 40.8555 53.8124 42.3575L58.2145 37.9562L51.0883 30.83C50.4814 30.2231 50.1784 29.4082 50.237 28.5361C50.292 27.7115 50.6939 26.9605 51.3684 26.4212L51.4219 26.3811C52.8132 25.399 54.0412 24.6428 55.2855 24.0017L55.3189 23.9854C55.804 23.7558 56.2467 23.3257 56.5654 22.776C57.0906 21.8638 57.0705 20.6611 56.5141 19.7868L56.4985 19.7615C55.9964 18.9243 55.2045 18.4192 54.2685 18.339L54.2336 18.3352C53.3184 18.2275 52.4396 18.5425 51.7599 19.2222C51.5147 19.4673 51.3469 19.6991 51.2325 19.9509L51.2146 19.9881C50.607 21.2034 49.8508 22.4328 48.8345 23.8561C48.3755 24.5336 47.6192 24.9927 46.7575 25.116C45.9174 25.2363 45.0282 24.9214 44.3797 24.2728L37.2914 17.1838L32.9665 21.5087C33.7547 21.9128 34.4663 22.438 35.1401 23.111C37.0574 25.0283 37.9845 27.6818 37.6829 30.391C37.3805 33.1113 35.8428 35.5003 33.4642 36.9466C30.7164 38.6455 27.1738 38.6931 24.4364 37.0677C22.9833 36.1956 21.7829 34.9432 20.9583 33.4411L16.5191 37.8804L16.5183 37.8796Z" fill="#FBFBFB"/>
</g>
<defs>
<clipPath id="clip0_85_167">
<rect width="74.285" height="74.285" fill="white" transform="translate(0.875427 0.284668)"/>
</clipPath>
<clipPath id="clip1_85_167">
<rect width="74.285" height="74.285" fill="white" transform="translate(0.875671 0.284668)"/>
</clipPath>
<clipPath id="clip2_85_167">
<rect width="74.285" height="74.285" fill="white" transform="translate(0.875671 0.284668)"/>
</clipPath>
</defs>
</svg>
