<svg width="88" height="46" viewBox="0 0 88 46" fill="none" xmlns="http://www.w3.org/2000/svg">
<path d="M6.71303 35.8803H81.0881C84.2885 35.8803 86.9006 33.3072 86.9006 30.1301V16.1291C86.9006 12.952 84.2885 10.3789 81.0881 10.3789H6.71303C3.51348 10.3789 0.900574 12.9519 0.900574 16.1291V30.1301C0.900574 33.3064 3.51262 35.8803 6.71303 35.8803ZM5.44195 16.1291C5.44195 15.4454 6.00674 14.8788 6.71303 14.8788H81.0881C81.7949 14.8788 82.3592 15.4459 82.3592 16.1291V30.1301C82.3592 30.8138 81.7944 31.3804 81.0881 31.3804H6.71303C6.00626 31.3804 5.44195 30.8133 5.44195 30.1301V16.1291Z" fill="white" stroke="white"/>
<path d="M79.423 12.8812H79.923V12.3812V10.0364C79.923 5.25764 75.9926 1.38086 71.1723 1.38086H16.8415C12.0212 1.38086 8.08923 5.25752 8.08923 10.0364V12.3812V12.8812H8.58923H79.423ZM12.7961 10.3814C13.0095 7.48715 15.0626 5.88149 16.8415 5.88149H71.1723C72.9665 5.88149 75.0165 7.31955 75.2181 10.3814H12.7961Z" fill="white" stroke="white"/>
<path d="M8.58997 33.3799H8.08997V33.8799V36.2248C8.08997 41.0036 12.022 44.8803 16.8422 44.8803H71.173C75.9934 44.8803 79.9237 41.0035 79.9237 36.2248V33.8799V33.3799H79.4237H8.58997ZM16.8422 40.3796C15.0676 40.3796 13.0134 38.7397 12.7973 35.8798H75.2227C75.1365 37.588 74.6073 38.6741 73.9257 39.3439C73.1755 40.081 72.174 40.3796 71.173 40.3796H16.8422Z" fill="white" stroke="white"/>
<path d="M13.9047 24.8825H10.3634C9.38497 24.8825 8.59229 24.0991 8.59229 23.1322C8.59229 22.1652 9.3842 21.3818 10.3634 21.3818H13.9047C14.8831 21.3818 15.6758 22.1652 15.6758 23.1322C15.6758 24.0991 14.8839 24.8825 13.9047 24.8825Z" fill="#C3044D"/>
<path d="M13.9047 24.8825H10.3634C9.38497 24.8825 8.59229 24.0991 8.59229 23.1322C8.59229 22.1652 9.3842 21.3818 10.3634 21.3818H13.9047C14.8831 21.3818 15.6758 22.1652 15.6758 23.1322C15.6758 24.0991 14.8839 24.8825 13.9047 24.8825Z" stroke="#C3044D"/>
<path d="M24.4982 24.8825H20.9568C19.9784 24.8825 19.1857 24.0991 19.1857 23.1322C19.1857 22.1652 19.9776 21.3818 20.9568 21.3818H24.4982C25.4766 21.3818 26.2693 22.1652 26.2693 23.1322C26.2693 24.0991 25.4773 24.8825 24.4982 24.8825Z" fill="#C3044D"/>
<path d="M24.4982 24.8825H20.9568C19.9784 24.8825 19.1857 24.0991 19.1857 23.1322C19.1857 22.1652 19.9776 21.3818 20.9568 21.3818H24.4982C25.4766 21.3818 26.2693 22.1652 26.2693 23.1322C26.2693 24.0991 25.4773 24.8825 24.4982 24.8825Z" stroke="#C3044D"/>
<path d="M35.1546 24.8825H31.6132C30.6348 24.8825 29.8421 24.0991 29.8421 23.1322C29.8421 22.1652 30.634 21.3818 31.6132 21.3818H35.1546C36.1329 21.3818 36.9256 22.1652 36.9256 23.1322C36.9256 24.0991 36.1337 24.8825 35.1546 24.8825Z" fill="#C3044D"/>
<path d="M35.1546 24.8825H31.6132C30.6348 24.8825 29.8421 24.0991 29.8421 23.1322C29.8421 22.1652 30.634 21.3818 31.6132 21.3818H35.1546C36.1329 21.3818 36.9256 22.1652 36.9256 23.1322C36.9256 24.0991 36.1337 24.8825 35.1546 24.8825Z" stroke="#C3044D"/>
<path d="M45.6728 24.8825H42.1314C41.153 24.8825 40.3604 24.0991 40.3604 23.1322C40.3604 22.1652 41.1523 21.3818 42.1314 21.3818H45.6728C46.6512 21.3818 47.4439 22.1652 47.4439 23.1322C47.4439 24.0983 46.652 24.8825 45.6728 24.8825Z" fill="#C3044D"/>
<path d="M45.6728 24.8825H42.1314C41.153 24.8825 40.3604 24.0991 40.3604 23.1322C40.3604 22.1652 41.1523 21.3818 42.1314 21.3818H45.6728C46.6512 21.3818 47.4439 22.1652 47.4439 23.1322C47.4439 24.0983 46.652 24.8825 45.6728 24.8825Z" stroke="#C3044D"/>
<path d="M70.5714 28.3822C67.6416 28.3822 65.259 26.0275 65.259 23.132C65.259 20.2366 67.6416 17.8818 70.5714 17.8818C73.5012 17.8818 75.8839 20.2366 75.8839 23.132C75.8839 26.0275 73.5012 28.3822 70.5714 28.3822Z" fill="#C3044D"/>
</svg>
