<svg width="75" height="76" viewBox="0 0 75 76" fill="none" xmlns="http://www.w3.org/2000/svg">
<g clip-path="url(#clip0_85_141)">
<path d="M34.5966 40.6608C33.9243 39.9886 33.5083 39.06 33.5083 38.0349V19.4636C33.5083 17.4126 35.1715 15.7494 37.2225 15.7494C39.2735 15.7494 40.9368 17.4126 40.9368 19.4636V36.4964L52.9806 48.5403C54.4314 49.991 54.4314 52.3422 52.9806 53.793C51.5298 55.2437 49.1787 55.2437 47.7279 53.793L34.5966 40.6608ZM37.2225 0.891602C39.2735 0.891602 40.9368 2.55484 40.9368 4.60585C40.9368 6.65686 39.2735 8.32011 37.2225 8.32011C20.8122 8.32011 7.50852 21.6238 7.50852 38.0341C7.50852 54.4444 20.8122 67.7481 37.2225 67.7481C53.6328 67.7481 66.9366 54.4444 66.9366 38.0341C66.9366 35.9831 68.5998 34.3199 70.6508 34.3199C72.7018 34.3199 74.3651 35.9831 74.3651 38.0341C74.3651 58.5472 57.7356 75.1766 37.2225 75.1766C16.7095 75.1766 0.0800171 58.5472 0.0800171 38.0341C0.0800171 17.521 16.7095 0.891602 37.2225 0.891602ZM48.5636 10.5695C46.6753 9.76792 45.7943 7.58691 46.5958 5.69933C47.3974 3.811 49.5776 2.92998 51.466 3.73152C53.3543 4.53305 54.2353 6.71332 53.4338 8.60165C52.6322 10.49 50.4512 11.371 48.5636 10.5695ZM58.2333 17.0233C56.7825 15.5733 56.7825 13.2214 58.2333 11.7706C59.6834 10.3206 62.0352 10.3206 63.486 11.7706C64.9361 13.2214 64.9361 15.5733 63.486 17.0233C62.0352 18.4741 59.6834 18.4741 58.2333 17.0233ZM64.6619 26.6336C63.8938 24.7312 64.812 22.5665 66.7144 21.7984C68.6161 21.0303 70.7816 21.9484 71.5497 23.8509C72.3178 25.7526 71.3989 27.918 69.4972 28.6861C67.5955 29.4542 65.4301 28.5353 64.6619 26.6336Z" fill="#C3044D"/>
<path d="M34.5964 40.6608C33.9242 39.9886 33.5082 39.06 33.5082 38.0349V19.4636C33.5082 17.4126 35.1714 15.7494 37.2224 15.7494C39.2734 15.7494 40.9367 17.4126 40.9367 19.4636V36.4964L52.9805 48.5403C54.4313 49.991 54.4313 52.3422 52.9805 53.793C51.5297 55.2437 49.1786 55.2437 47.7278 53.793L34.5964 40.6608ZM37.2224 0.891602C39.2734 0.891602 40.9367 2.55484 40.9367 4.60585C40.9367 6.65686 39.2734 8.32011 37.2224 8.32011C20.8121 8.32011 7.5084 21.6238 7.5084 38.0341C7.5084 54.4444 20.8121 67.7481 37.2224 67.7481C53.6327 67.7481 66.9364 54.4444 66.9364 38.0341C66.9364 35.9831 68.5997 34.3199 70.6507 34.3199C72.7017 34.3199 74.3649 35.9831 74.3649 38.0341C74.3649 58.5472 57.7355 75.1766 37.2224 75.1766C16.7093 75.1766 0.079895 58.5472 0.079895 38.0341C0.079895 17.521 16.7093 0.891602 37.2224 0.891602Z" fill="#FBFBFB"/>
</g>
<defs>
<clipPath id="clip0_85_141">
<rect width="74.285" height="74.285" fill="white" transform="translate(0.079895 0.891602)"/>
</clipPath>
</defs>
</svg>
