<svg width="1567" height="6864" viewBox="0 0 1567 6864" fill="none" xmlns="http://www.w3.org/2000/svg">
<path d="M801.254 3.37549C801.254 87.9167 801.254 188.69 628.458 188.69C487.869 188.69 302.069 186.57 232.056 188.69C89.0318 193.021 4.11154 246.981 4.11154 377.599L4.11161 2029.88C1.13197 2088.68 42.5493 2206.26 232.056 2206.26C421.563 2206.26 1049.97 2206.26 1340.49 2206.26C1414.98 2203.39 1563.97 2235.51 1563.97 2386.93C1563.97 2538.35 1563.97 4423.03 1563.97 4665.36C1562.48 4718.41 1515.69 4862.17 1340.49 4862.17C1165.29 4862.17 528.532 4862.17 232.056 4862.17C156.075 4859.31 4.11163 4914.18 4.11163 5062.16C4.11163 5210.14 4.11154 5215.04 4.11154 5369.9V6381.71C4.11154 6509.44 60.7583 6615.25 232.056 6615.25C403.354 6615.25 538.586 6615.25 624.544 6615.25C692.922 6615.25 781.254 6690.48 781.254 6766.21C781.254 6841.94 781.254 6783.6 781.254 6860.73" stroke="#1E1E1E" stroke-width="6" stroke-linecap="round" stroke-dasharray="15 15"/>
</svg>
